<?xml version="1.0" encoding="UTF-8" standalone="no"?>
<!-- Created with Inkscape (http://www.inkscape.org/) -->

<svg
   xmlns:dc="http://purl.org/dc/elements/1.1/"
   xmlns:cc="http://creativecommons.org/ns#"
   xmlns:rdf="http://www.w3.org/1999/02/22-rdf-syntax-ns#"
   xmlns:svg="http://www.w3.org/2000/svg"
   xmlns="http://www.w3.org/2000/svg"
   xmlns:sodipodi="http://sodipodi.sourceforge.net/DTD/sodipodi-0.dtd"
   xmlns:inkscape="http://www.inkscape.org/namespaces/inkscape"
   width="62mm"
   height="87mm"
   viewBox="0 0 62 87"
   version="1.1"
   id="svg8"
   inkscape:version="0.92.5 (2060ec1f9f, 2020-04-08)"
   sodipodi:docname="icon.svg">
  <defs
     id="defs2" />
  <sodipodi:namedview
     id="base"
     pagecolor="#ffffff"
     bordercolor="#666666"
     borderopacity="1.0"
     inkscape:pageopacity="0.0"
     inkscape:pageshadow="2"
     inkscape:zoom="0.49497475"
     inkscape:cx="192.32593"
     inkscape:cy="230.82241"
     inkscape:document-units="mm"
     inkscape:current-layer="layer1"
     showgrid="false"
     inkscape:window-width="1920"
     inkscape:window-height="1023"
     inkscape:window-x="0"
     inkscape:window-y="27"
     inkscape:window-maximized="1" />
  <metadata
     id="metadata5">
    <rdf:RDF>
      <cc:Work
         rdf:about="">
        <dc:format>image/svg+xml</dc:format>
        <dc:type
           rdf:resource="http://purl.org/dc/dcmitype/StillImage" />
        <dc:title></dc:title>
      </cc:Work>
    </rdf:RDF>
  </metadata>
  <g
     inkscape:label="Livello 1"
     inkscape:groupmode="layer"
     id="layer1"
     transform="translate(0,-210)">
    <path
       style="fill:#000000;stroke:#000000;stroke-width:0.48551914px;stroke-linecap:butt;stroke-linejoin:miter;stroke-opacity:1"
       d="m 5.5768631,240.6351 10.2255999,-0.32398 -0.18224,-7.64051 -3.61777,-3.53678 -0.35773,-6.83056 8.77445,-5.50766 6.02062,1.37692 3.31404,2.53783 0.94494,5.64265 -1.60639,3.64477 2.52434,10.42133 12.554203,0.45898 7.843,4.6437 6.60109,11.87926 0.18898,16.44197 -4.92718,11.60926 -8.97694,5.77764 -39.4553029,1.10154 z"
       id="path96-3"
       inkscape:connector-curvature="0"
       sodipodi:nodetypes="ccccccccccccccccccc" />
    <path
       style="fill:#ff6600;stroke:#000000;stroke-width:0.26458332px;stroke-linecap:butt;stroke-linejoin:miter;stroke-opacity:1"
       d="m 10.435198,244.57551 10.016368,-0.18899 -0.188989,-14.93006 -4.535713,-1.51191 -0.566965,-3.21279 3.023809,-3.2128 6.047619,-0.18899 2.456846,1.70089 v 3.40179 l -2.645833,2.45684 3.401785,15.11905 13.607141,0.37798 7.9375,3.59077 5.66964,10.01637 v 18.52084 l -4.91369,8.31547 -7.9375,3.59078 H 10.435198 Z"
       id="path96"
       inkscape:connector-curvature="0" />
    <path
       style="fill:#ffccaa;stroke:#000000;stroke-width:0.26458332px;stroke-linecap:butt;stroke-linejoin:miter;stroke-opacity:1"
       d="m 19.167791,278.2316 -0.04725,-24.56845 20.741444,-0.0945 4.393971,3.73252 0.18899,18.89881 -3.02381,2.55134 z"
       id="path153"
       inkscape:connector-curvature="0" />
    <path
       style="fill:#000000;stroke:#000000;stroke-width:0.26458332px;stroke-linecap:butt;stroke-linejoin:miter;stroke-opacity:1"
       d="m 23.333635,266.1674 c -0.204269,-0.0511 -0.124055,-0.0473 -0.236236,-0.0473 -0.01574,0 -0.03316,0.007 -0.04725,0 -0.01992,-0.01 -0.02733,-0.0373 -0.04725,-0.0473 -0.02817,-0.0141 -0.07222,0.0223 -0.0945,0 -0.01114,-0.0111 0.01114,-0.0361 0,-0.0472 -0.01114,-0.0111 -0.03316,0.007 -0.04725,0 -0.01992,-0.01 -0.02733,-0.0373 -0.04725,-0.0473 -0.01408,-0.007 -0.03316,0.007 -0.04725,0 -0.01992,-0.01 -0.02733,-0.0373 -0.04725,-0.0473 -0.01407,-0.007 -0.03611,0.0111 -0.04725,0 -0.01114,-0.0111 0.01114,-0.0361 0,-0.0472 -0.01114,-0.0111 -0.03316,0.007 -0.04725,0 -0.02188,-0.011 -0.1612,-0.1612 -0.188986,-0.18899 -0.02779,-0.0278 -0.178049,-0.16711 -0.188989,-0.18899 -0.01408,-0.0282 0.01408,-0.0663 0,-0.0945 -0.0099,-0.0199 -0.03728,-0.0273 -0.04725,-0.0473 -0.01408,-0.0282 0.02228,-0.0722 0,-0.0945 -0.01114,-0.0111 -0.03611,0.0111 -0.04725,0 -0.01114,-0.0111 0,-0.0315 0,-0.0472 0,-0.0787 0,-0.15749 0,-0.23624 0,-0.0157 0,-0.0315 0,-0.0473 0,-0.0157 0.007,-0.0332 0,-0.0472 -0.0099,-0.0199 -0.03728,-0.0273 -0.04725,-0.0473 -0.0048,-0.01 -0.0047,-0.2222 0,-0.23623 0.01114,-0.0334 0.03611,-0.0611 0.04725,-0.0945 0.01376,-0.0413 -0.01423,-0.25502 0,-0.28348 0.0099,-0.0199 0.03729,-0.0273 0.04725,-0.0472 0.0072,-0.0144 0,-0.12046 0,-0.14174 0,-0.12599 0,-0.25198 0,-0.37798 0,-0.0315 0,-0.063 0,-0.0945 0,-0.0157 -0.007,-0.0332 0,-0.0473 0.01,-0.0199 0.0402,-0.0261 0.04725,-0.0472 0.01992,-0.0598 -0.01992,-0.12923 0,-0.18899 0.007,-0.0211 0.04021,-0.0261 0.04725,-0.0473 0.01072,-0.0321 -0.01251,-0.21118 0,-0.23623 0.0099,-0.0199 0.03729,-0.0273 0.04725,-0.0472 0.007,-0.0141 -0.007,-0.0332 0,-0.0473 0.0099,-0.0199 0.03728,-0.0273 0.04725,-0.0472 0.007,-0.0141 0,-0.0315 0,-0.0472 0.01574,-0.0157 0.03728,-0.0273 0.04725,-0.0473 0.007,-0.0141 -0.01114,-0.0361 0,-0.0473 0.01114,-0.0111 0.03611,0.0111 0.04725,0 0.01114,-0.0111 -0.007,-0.0332 0,-0.0472 0.0099,-0.0199 0.03729,-0.0273 0.04725,-0.0473 0.007,-0.0141 -0.01114,-0.0361 0,-0.0473 0.01114,-0.0111 0.03316,0.007 0.04725,0 0.196633,-0.0983 -0.05051,0.003 0.04725,-0.0945 0.01114,-0.0111 0.03611,0.0111 0.04725,0 0.01114,-0.0111 -0.01114,-0.0361 0,-0.0473 0.01114,-0.0111 0.03316,0.007 0.04725,0 0.01992,-0.01 0.02733,-0.0373 0.04725,-0.0472 0.01709,-0.009 0.203372,0 0.236236,0 0.07874,0 0.157488,0 0.236233,0 0.01574,0 0.0315,0 0.04725,0 0.01574,0 0.03316,-0.007 0.04725,0 0.01992,0.01 0.02733,0.0373 0.04725,0.0472 0.02817,0.0141 0.06632,-0.0141 0.09449,0 0.01992,0.01 0.02733,0.0373 0.04725,0.0473 0.02817,0.0141 0.06632,-0.0141 0.09449,0 0.01992,0.01 0.02733,0.0373 0.04725,0.0473 0.01408,0.007 0.03316,-0.007 0.04725,0 0.0567,0.0283 0.08505,0.11339 0.14174,0.14174 0.01408,0.007 0.03316,-0.007 0.04725,0 0.0567,0.0283 0.08505,0.11339 0.141743,0.14174 0.01408,0.007 0.03611,-0.0111 0.04725,0 0.09776,0.0978 -0.149384,-0.004 0.04725,0.0945 0.01408,0.007 0.03611,-0.0111 0.04725,0 0.01114,0.0111 -0.007,0.0332 0,0.0473 0.01,0.0199 0.03729,0.0273 0.04725,0.0472 0.007,0.0141 -0.01114,0.0361 0,0.0472 0.01114,0.0111 0.03611,-0.0111 0.04725,0 0.01114,0.0111 -0.007,0.0332 0,0.0473 0.0099,0.0199 0.03729,0.0273 0.04725,0.0473 0.01889,0.0378 -0.01889,0.10394 0,0.14174 0.0099,0.0199 0.03728,0.0273 0.04725,0.0472 0.007,0.0141 -0.01114,0.0361 0,0.0472 0.01114,0.0111 0.03611,-0.0111 0.04725,0 0.02228,0.0223 -0.01408,0.0663 0,0.0945 0.0099,0.0199 0.0402,0.0261 0.04725,0.0472 0.0099,0.0299 0,0.063 0,0.0945 0,0.0157 -0.007,0.0332 0,0.0472 0.0099,0.0199 0.03729,0.0273 0.04725,0.0473 0.01484,0.0297 -0.01484,0.15929 0,0.18899 0.01,0.0199 0.03729,0.0273 0.04725,0.0472 0.0062,0.0124 0,0.16428 0,0.18899 0,0.0945 0,0.18898 0,0.28348 0,0.0213 0.0072,0.12736 0,0.14174 -0.0099,0.0199 -0.03728,0.0273 -0.04725,0.0473 -0.0149,0.0298 0.0149,0.20642 0,0.23623 -0.0099,0.0199 -0.03728,0.0273 -0.04725,0.0473 -0.01889,0.0378 0.01889,0.10394 0,0.14174 -0.0099,0.0199 -0.03728,0.0273 -0.04725,0.0473 -0.01408,0.0282 0.02228,0.0722 0,0.0945 -0.01114,0.0111 -0.03611,-0.0111 -0.04725,0 -0.02228,0.0223 0.01408,0.0663 0,0.0945 -0.0099,0.0199 -0.03729,0.0273 -0.04725,0.0472 -0.007,0.0141 0.007,0.0332 0,0.0473 -0.0099,0.0199 -0.03729,0.0273 -0.04725,0.0473 -0.01408,0.0282 0.02228,0.0722 0,0.0945 -0.01114,0.0111 -0.03611,-0.0111 -0.04725,0 -0.01114,0.0111 0.007,0.0332 0,0.0473 -0.0099,0.0199 -0.03729,0.0273 -0.04725,0.0472 -0.007,0.0141 0.01114,0.0361 0,0.0472 -0.01114,0.0111 -0.03611,-0.0111 -0.04725,0 -0.01114,0.0111 0.007,0.0332 0,0.0473 -0.0045,0.009 -0.179943,0.18446 -0.188989,0.18899 -0.01408,0.007 -0.03611,-0.0111 -0.04725,0 -0.01114,0.0111 0.01114,0.0361 0,0.0472 -0.01114,0.0111 -0.03611,-0.0111 -0.04725,0 -0.01114,0.0111 0.01114,0.0361 0,0.0473 -0.02228,0.0223 -0.06632,-0.0141 -0.09449,0 -0.01992,0.01 -0.02733,0.0373 -0.04725,0.0473 -0.02817,0.0141 -0.07222,-0.0223 -0.0945,0 -0.01114,0.0111 0.01114,0.0361 0,0.0472 -0.02228,0.0223 -0.07222,-0.0223 -0.09449,0 -0.01114,0.0111 0,0.0315 0,0.0473 -0.063,0.0157 -0.125992,0.0315 -0.188987,0.0473 z"
       id="path129"
       inkscape:connector-curvature="0" />
    <path
       style="fill:#ff6600;stroke:#000000;stroke-width:0.26458332px;stroke-linecap:butt;stroke-linejoin:miter;stroke-opacity:1"
       d="m 39.870093,270.79756 h -0.0945 c -0.01574,0 -0.0323,0.005 -0.04725,0 -0.03341,-0.0111 -0.06033,-0.0387 -0.09449,-0.0472 -0.03056,-0.008 -0.06394,0.008 -0.09449,0 -0.09383,-0.0235 -0.189656,-0.11828 -0.283483,-0.14174 -0.03056,-0.008 -0.06394,0.008 -0.09449,0 -0.06833,-0.0171 -0.12066,-0.0774 -0.188989,-0.0945 -0.03056,-0.008 -0.06461,0.01 -0.09449,0 -0.02114,-0.007 -0.02612,-0.0402 -0.04725,-0.0472 -0.02988,-0.01 -0.06394,0.008 -0.0945,0 -0.03416,-0.009 -0.06108,-0.0361 -0.09449,-0.0473 -0.01495,-0.005 -0.03231,0.005 -0.04725,0 -0.171286,-0.0571 -0.03363,-0.0224 -0.141742,-0.0945 -0.0586,-0.0391 -0.130384,-0.0554 -0.188987,-0.0945 -0.01852,-0.0123 -0.02872,-0.0349 -0.04725,-0.0472 -0.0293,-0.0195 -0.06959,-0.0224 -0.0945,-0.0472 -0.0572,-0.11442 -0.02236,-0.0696 -0.09449,-0.14174 -0.01574,-0.0158 -0.0315,-0.0315 -0.04725,-0.0473 -0.01574,-0.0157 -0.02733,-0.0373 -0.04725,-0.0473 -0.06517,-0.0326 -0.04226,0.0572 -0.09449,-0.0472 -0.007,-0.0141 0.007,-0.0332 0,-0.0473 -0.01,-0.0199 -0.04021,-0.0261 -0.04725,-0.0473 -0.01418,-0.0425 0.01418,-0.0992 0,-0.14174 -0.01114,-0.0334 -0.03871,-0.0603 -0.04725,-0.0945 -0.0076,-0.0306 0,-0.063 0,-0.0945 v -0.28348 c 0,-0.0264 -0.0072,-0.21461 0,-0.23624 0.01407,-0.0422 0.07457,-0.0546 0.0945,-0.0945 0.007,-0.0141 -0.005,-0.0323 0,-0.0472 0.01114,-0.0334 0.03611,-0.0611 0.04725,-0.0945 0.005,-0.0149 -0.007,-0.0332 0,-0.0472 0.0099,-0.0199 0.0402,-0.0261 0.04725,-0.0472 0.0099,-0.0299 -0.0099,-0.0646 0,-0.0945 0.0096,-0.0289 0.162441,-0.14916 0.188986,-0.18899 0.01953,-0.0293 0.02771,-0.0652 0.04725,-0.0945 0.01236,-0.0185 0.0315,-0.0315 0.04725,-0.0472 0.01574,-0.0157 0.02872,-0.0349 0.04725,-0.0472 0.0293,-0.0195 0.06959,-0.0224 0.09449,-0.0473 0.0249,-0.0249 0.02236,-0.0696 0.04725,-0.0945 0.0249,-0.0249 0.06519,-0.0277 0.0945,-0.0472 0.06952,-0.0463 0.119465,-0.14264 0.188986,-0.18899 0.0293,-0.0195 0.06519,-0.0277 0.09449,-0.0473 0.108116,-0.0721 -0.02954,-0.0374 0.141742,-0.0945 0.01495,-0.005 0.03316,0.007 0.04725,0 0.01992,-0.01 0.02872,-0.0349 0.04725,-0.0472 0.0293,-0.0195 0.06519,-0.0277 0.09449,-0.0473 0.03706,-0.0247 0.05224,-0.0804 0.0945,-0.0945 0.02988,-0.01 0.06461,0.01 0.09449,0 0.02114,-0.007 0.02733,-0.0373 0.04725,-0.0473 0.01408,-0.007 0.03316,0.007 0.04725,0 0.01992,-0.01 0.02611,-0.0402 0.04725,-0.0472 0.02988,-0.01 0.06461,0.01 0.0945,0 0.02114,-0.007 0.02733,-0.0373 0.04725,-0.0472 0.01408,-0.007 0.03231,0.005 0.04725,0 0.03341,-0.0111 0.06109,-0.0361 0.09449,-0.0473 0.0325,-0.0108 0.113866,0.0139 0.141742,0 0.01992,-0.01 0.02612,-0.0402 0.04725,-0.0472 0.02988,-0.01 0.06299,0 0.09449,0 0.01574,0 0.03316,0.007 0.04725,0 0.01992,-0.01 0.02611,-0.0402 0.04725,-0.0472 0.04252,-0.0142 0.09922,0.0142 0.141738,0 0.0334,-0.0111 0.0611,-0.0361 0.0945,-0.0473 0.0448,-0.0149 0.0969,0.0149 0.14174,0 0.0211,-0.007 0.0261,-0.0402 0.0472,-0.0473 0.0229,-0.008 0.28249,0 0.33072,0 h 0.75596 0.47247 c 0.038,0 0.15933,-0.01 0.18898,0 0.0334,0.0111 0.0611,0.0361 0.0945,0.0473 0.0419,0.014 0.2053,-0.0155 0.23623,0 0.0199,0.01 0.0273,0.0373 0.0472,0.0473 0.0378,0.0189 0.10394,-0.0189 0.14174,0 0.0199,0.01 0.0273,0.0373 0.0473,0.0472 0.0141,0.007 0.0332,-0.007 0.0473,0 0.0199,0.01 0.0273,0.0373 0.0472,0.0472 0.0141,0.007 0.0332,-0.007 0.0472,0 0.0199,0.01 0.0273,0.0373 0.0473,0.0473 0.0141,0.007 0.0332,-0.007 0.0472,0 0.0199,0.01 0.0273,0.0373 0.0472,0.0472 0.0282,0.0141 0.0663,-0.0141 0.0945,0 0.009,0.005 0.18446,0.17994 0.18898,0.18898 0.007,0.0141 -0.0111,0.0361 0,0.0473 0.0111,0.0111 0.0361,-0.0111 0.0473,0 0.0111,0.0111 -0.007,0.0332 0,0.0472 0.0284,0.0567 0.11339,0.085 0.14174,0.14174 0.007,0.0141 -0.007,0.0332 0,0.0472 0.0199,0.0398 0.0804,0.0522 0.0945,0.0945 0.01,0.0299 -0.01,0.0646 0,0.0945 0.007,0.0211 0.0373,0.0273 0.0472,0.0473 0.0141,0.0282 -0.01,0.0646 0,0.0945 0.0111,0.0334 0.0361,0.0611 0.0473,0.0945 0.009,0.0267 0,0.11069 0,0.14174 v 0.23624 c 0,0.038 0.01,0.15933 0,0.18898 -0.0111,0.0334 -0.0361,0.0611 -0.0473,0.0945 -0.01,0.0299 0.0141,0.0663 0,0.0945 -0.01,0.0199 -0.0373,0.0273 -0.0472,0.0472 -0.007,0.0141 0.007,0.0332 0,0.0473 -0.01,0.0199 -0.0349,0.0287 -0.0472,0.0472 -0.10409,0.0238 -0.025,0.0972 -0.0473,0.14174 -0.01,0.0199 -0.0349,0.0287 -0.0472,0.0472 -0.0724,0.10864 -0.0221,0.1276 -0.0945,0.23624 -0.0123,0.0185 -0.0349,0.0287 -0.0473,0.0472 -0.0195,0.0293 -0.0277,0.0652 -0.0472,0.0945 -0.0124,0.0185 -0.0349,0.0287 -0.0473,0.0472 -0.0195,0.0293 -0.0277,0.0652 -0.0473,0.0945 -0.0134,0.02 -0.12219,0.13197 -0.14174,0.14174 -0.0141,0.007 -0.0332,-0.007 -0.0472,0 -0.0398,0.0199 -0.0547,0.0746 -0.0945,0.0945 -0.0141,0.007 -0.0332,-0.007 -0.0472,0 -0.0398,0.0199 -0.0574,0.0698 -0.0945,0.0945 -0.34257,0.17128 0.0747,-0.0498 -0.14174,0.0945 -0.0293,0.0195 -0.0652,0.0277 -0.0945,0.0473 -0.0371,0.0247 -0.0574,0.0698 -0.0945,0.0945 -0.0293,0.0195 -0.0652,0.0277 -0.0945,0.0473 -0.0185,0.0124 -0.0287,0.0349 -0.0472,0.0473 -0.0293,0.0195 -0.0652,0.0277 -0.0945,0.0472 -0.0185,0.0124 -0.0273,0.0373 -0.0472,0.0473 -0.0141,0.007 -0.0323,-0.005 -0.0473,0 -0.0334,0.0111 -0.0611,0.0361 -0.0945,0.0473 -0.0149,0.005 -0.0332,-0.007 -0.0473,0 -0.0199,0.01 -0.0261,0.0402 -0.0472,0.0472 -0.0299,0.01 -0.0646,-0.01 -0.0945,0 -0.0423,0.0141 -0.0522,0.0804 -0.0945,0.0945 -0.0299,0.01 -0.0646,-0.01 -0.0945,0 -0.0211,0.007 -0.0261,0.0402 -0.0473,0.0472 -0.0299,0.01 -0.0646,-0.01 -0.0945,0 -0.0211,0.007 -0.0273,0.0373 -0.0472,0.0472 -0.0141,0.007 -0.0332,-0.007 -0.0472,0 -0.0199,0.01 -0.0273,0.0373 -0.0473,0.0473 -0.0141,0.007 -0.0315,0 -0.0472,0 h -0.0473 -0.28348 -0.0473 c -0.0157,0 -0.0361,-0.0111 -0.0472,0 -0.0111,0.0111 0.0111,0.0361 0,0.0472 -0.0111,0.0111 -0.0315,0 -0.0472,0 h -0.33073 c -0.0131,0 -0.13787,0.003 -0.14174,0 -0.28062,-0.0598 -0.320847,-0.0668 -0.566933,-0.14178 z"
       id="path145"
       inkscape:connector-curvature="0"
       sodipodi:nodetypes="cscccccccccccccccccccccccsscccccccccccscccccccccccccccccccsccccccscsccccccccccccccccccscccccssccccccccccccccscsccccccccccccccccccccsccssssscc" />
    <path
       style="fill:none;stroke:#000000;stroke-width:0.26458332px;stroke-linecap:butt;stroke-linejoin:miter;stroke-opacity:1"
       d="m 30.301683,266.76514 c -0.02228,-0.0446 -0.04454,-0.0891 -0.06682,-0.13364 0,-0.0111 0.0035,-0.0228 0,-0.0334 -0.0079,-0.0236 -0.02553,-0.0432 -0.03341,-0.0668 -0.0072,-0.0216 0,-0.13969 0,-0.16704 0,-0.0223 -0.0044,-0.045 0,-0.0668 0.01381,-0.0691 0.04747,-0.13273 0.06682,-0.20045 0.01262,-0.0442 0.01532,-0.0914 0.03341,-0.13363 0.01582,-0.0369 0.04886,-0.0643 0.06682,-0.10023 0.01574,-0.0315 0.01953,-0.0679 0.03341,-0.10023 0.01963,-0.0458 0.04454,-0.0891 0.06682,-0.13363 0.02228,-0.0445 0.04211,-0.0904 0.06682,-0.13363 0.03908,-0.0684 0.124021,-0.1765 0.167042,-0.23386 0.03341,-0.0446 0.06786,-0.0883 0.100227,-0.13364 0.04742,-0.0664 0.11245,-0.17927 0.167045,-0.23386 0.02839,-0.0284 0.06755,-0.0435 0.100224,-0.0668 0.290076,-0.20719 -0.0024,-0.01 0.233862,-0.16704 0.03341,-0.0223 0.06332,-0.051 0.100224,-0.0668 0.0422,-0.0181 0.08909,-0.0223 0.133636,-0.0334 0.115157,-0.0288 0.147569,-0.0484 0.267269,-0.0334 0.04556,0.006 0.08909,0.0223 0.133636,0.0334 0.04454,0.0111 0.09168,0.0148 0.133636,0.0334 0.05934,0.0264 0.11136,0.0668 0.167042,0.10023 0.129042,0.0774 0.225213,0.12498 0.334086,0.23386 0.05042,0.0504 0.08848,0.11185 0.133636,0.16704 0.05508,0.0673 0.111966,0.13314 0.167042,0.20045 0.206499,0.25239 0.0743,0.075 0.233863,0.3675 0.03109,0.057 0.07335,0.10793 0.100224,0.16704 0.07394,0.16266 0.069,0.22914 0.100227,0.40091 0.01016,0.0559 0.03341,0.11026 0.03341,0.16704 0,0.0568 -0.02776,0.11054 -0.03341,0.16704 -0.04421,0.44207 0.06829,-0.11627 -0.06682,0.33409 -0.03263,0.10878 -0.03418,0.22531 -0.06682,0.33409 -0.01722,0.0574 -0.04454,0.11136 -0.06682,0.16704"
       id="path147"
       inkscape:connector-curvature="0" />
    <path
       style="fill:#1a1a1a;stroke:#000000;stroke-width:0.26458332px;stroke-linecap:butt;stroke-linejoin:miter;stroke-opacity:1"
       d="m 33.566023,222.98215 4.810853,-1.46998 -4.142679,-0.66817 7.617179,-5.34539 -3.4745,4.27631 4.00904,2.40543 z"
       id="path155"
       inkscape:connector-curvature="0" />
    <path
       style="fill:#000000;stroke:#000000;stroke-width:0.26458332px;stroke-linecap:butt;stroke-linejoin:miter;stroke-opacity:1"
       d="m 8.3407071,227.70054 -4.009043,-1.87089 2.138159,-1.06907 -4.944489,-4.67722 2.004523,4.67722 -1.737251,2.40542 z"
       id="path157"
       inkscape:connector-curvature="0" />
    <path
       style="fill:#000000;stroke:#000000;stroke-width:0.26458332px;stroke-linecap:butt;stroke-linejoin:miter;stroke-opacity:1"
       d="m 40.484476,266.16428 c -0.20427,-0.0511 -0.12406,-0.0473 -0.23624,-0.0473 -0.0157,0 -0.0332,0.007 -0.0472,0 -0.0199,-0.01 -0.0273,-0.0373 -0.0473,-0.0473 -0.02817,-0.0141 -0.07222,0.0223 -0.0945,0 -0.01114,-0.0111 0.01114,-0.0361 0,-0.0472 -0.01114,-0.0111 -0.03316,0.007 -0.04725,0 -0.01992,-0.01 -0.02733,-0.0373 -0.04725,-0.0473 -0.01408,-0.007 -0.03316,0.007 -0.04725,0 -0.01992,-0.01 -0.02733,-0.0373 -0.04725,-0.0473 -0.01407,-0.007 -0.03611,0.0111 -0.04725,0 -0.01114,-0.0111 0.01114,-0.0361 0,-0.0472 -0.01114,-0.0111 -0.03316,0.007 -0.04725,0 -0.02188,-0.011 -0.1612,-0.1612 -0.188986,-0.18899 -0.02779,-0.0278 -0.178049,-0.16711 -0.188989,-0.18899 -0.01408,-0.0282 0.01408,-0.0663 0,-0.0945 -0.0099,-0.0199 -0.03728,-0.0273 -0.04725,-0.0473 -0.01408,-0.0282 0.02228,-0.0722 0,-0.0945 -0.01114,-0.0111 -0.03611,0.0111 -0.04725,0 -0.01114,-0.0111 0,-0.0315 0,-0.0472 0,-0.0787 0,-0.15749 0,-0.23624 0,-0.0157 0,-0.0315 0,-0.0473 0,-0.0157 0.007,-0.0332 0,-0.0472 -0.0099,-0.0199 -0.03728,-0.0273 -0.04725,-0.0473 -0.0048,-0.01 -0.0047,-0.2222 0,-0.23623 0.01114,-0.0334 0.03611,-0.0611 0.04725,-0.0945 0.01376,-0.0413 -0.01423,-0.25502 0,-0.28348 0.0099,-0.0199 0.03729,-0.0273 0.04725,-0.0472 0.0072,-0.0144 0,-0.12046 0,-0.14174 0,-0.12599 0,-0.25198 0,-0.37798 0,-0.0315 0,-0.063 0,-0.0945 0,-0.0157 -0.007,-0.0332 0,-0.0473 0.01,-0.0199 0.0402,-0.0261 0.04725,-0.0472 0.01992,-0.0598 -0.01992,-0.12923 0,-0.18899 0.007,-0.0211 0.04021,-0.0261 0.04725,-0.0473 0.01072,-0.0321 -0.01251,-0.21118 0,-0.23623 0.0099,-0.0199 0.03729,-0.0273 0.04725,-0.0472 0.007,-0.0141 -0.007,-0.0332 0,-0.0473 0.0099,-0.0199 0.03728,-0.0273 0.04725,-0.0472 0.007,-0.0141 0,-0.0315 0,-0.0472 0.01574,-0.0157 0.03728,-0.0273 0.04725,-0.0473 0.007,-0.0141 -0.01114,-0.0361 0,-0.0473 0.01114,-0.0111 0.03611,0.0111 0.04725,0 0.01114,-0.0111 -0.007,-0.0332 0,-0.0472 0.0099,-0.0199 0.03729,-0.0273 0.04725,-0.0473 0.007,-0.0141 -0.01114,-0.0361 0,-0.0473 0.01114,-0.0111 0.03316,0.007 0.04725,0 0.196633,-0.0983 -0.05051,0.003 0.04725,-0.0945 0.01114,-0.0111 0.03611,0.0111 0.04725,0 0.01114,-0.0111 -0.01114,-0.0361 0,-0.0473 0.01114,-0.0111 0.03316,0.007 0.04725,0 0.01992,-0.01 0.02733,-0.0373 0.04725,-0.0472 0.01709,-0.009 0.203372,0 0.236232,0 0.0787,0 0.15749,0 0.23624,0 0.0157,0 0.0315,0 0.0473,0 0.0157,0 0.0332,-0.007 0.0473,0 0.0199,0.01 0.0273,0.0373 0.0472,0.0472 0.0282,0.0141 0.0663,-0.0141 0.0945,0 0.0199,0.01 0.0273,0.0373 0.0472,0.0473 0.0282,0.0141 0.0663,-0.0141 0.0945,0 0.0199,0.01 0.0273,0.0373 0.0472,0.0473 0.0141,0.007 0.0332,-0.007 0.0473,0 0.0567,0.0283 0.085,0.11339 0.14174,0.14174 0.0141,0.007 0.0332,-0.007 0.0473,0 0.0567,0.0283 0.085,0.11339 0.14174,0.14174 0.0141,0.007 0.0361,-0.0111 0.0472,0 0.0978,0.0978 -0.14938,-0.004 0.0473,0.0945 0.0141,0.007 0.0361,-0.0111 0.0473,0 0.0111,0.0111 -0.007,0.0332 0,0.0473 0.01,0.0199 0.0373,0.0273 0.0472,0.0472 0.007,0.0141 -0.0111,0.0361 0,0.0472 0.0111,0.0111 0.0361,-0.0111 0.0473,0 0.0111,0.0111 -0.007,0.0332 0,0.0473 0.01,0.0199 0.0373,0.0273 0.0473,0.0473 0.0189,0.0378 -0.0189,0.10394 0,0.14174 0.01,0.0199 0.0373,0.0273 0.0472,0.0472 0.007,0.0141 -0.0111,0.0361 0,0.0472 0.0111,0.0111 0.0361,-0.0111 0.0473,0 0.0223,0.0223 -0.0141,0.0663 0,0.0945 0.01,0.0199 0.0402,0.0261 0.0472,0.0472 0.01,0.0299 0,0.063 0,0.0945 0,0.0157 -0.007,0.0332 0,0.0472 0.01,0.0199 0.0373,0.0273 0.0473,0.0473 0.0148,0.0297 -0.0148,0.15929 0,0.18899 0.01,0.0199 0.0373,0.0273 0.0473,0.0472 0.006,0.0124 0,0.16428 0,0.18899 0,0.0945 0,0.18898 0,0.28348 0,0.0213 0.007,0.12736 0,0.14174 -0.01,0.0199 -0.0373,0.0273 -0.0473,0.0473 -0.0149,0.0298 0.0149,0.20642 0,0.23623 -0.01,0.0199 -0.0373,0.0273 -0.0473,0.0473 -0.0189,0.0378 0.0189,0.10394 0,0.14174 -0.01,0.0199 -0.0373,0.0273 -0.0472,0.0473 -0.0141,0.0282 0.0223,0.0722 0,0.0945 -0.0111,0.0111 -0.0361,-0.0111 -0.0473,0 -0.0223,0.0223 0.0141,0.0663 0,0.0945 -0.01,0.0199 -0.0373,0.0273 -0.0472,0.0472 -0.007,0.0141 0.007,0.0332 0,0.0473 -0.01,0.0199 -0.0373,0.0273 -0.0473,0.0473 -0.0141,0.0282 0.0223,0.0722 0,0.0945 -0.0111,0.0111 -0.0361,-0.0111 -0.0473,0 -0.0111,0.0111 0.007,0.0332 0,0.0473 -0.01,0.0199 -0.0373,0.0273 -0.0472,0.0472 -0.007,0.0141 0.0111,0.0361 0,0.0472 -0.0111,0.0111 -0.0361,-0.0111 -0.0473,0 -0.0111,0.0111 0.007,0.0332 0,0.0473 -0.004,0.009 -0.17994,0.18446 -0.18899,0.18899 -0.0141,0.007 -0.0361,-0.0111 -0.0472,0 -0.0111,0.0111 0.0111,0.0361 0,0.0472 -0.0111,0.0111 -0.0361,-0.0111 -0.0473,0 -0.0111,0.0111 0.0111,0.0361 0,0.0473 -0.0223,0.0223 -0.0663,-0.0141 -0.0945,0 -0.0199,0.01 -0.0273,0.0373 -0.0473,0.0473 -0.0282,0.0141 -0.0722,-0.0223 -0.0945,0 -0.0111,0.0111 0.0111,0.0361 0,0.0472 -0.0223,0.0223 -0.0722,-0.0223 -0.0945,0 -0.0111,0.0111 0,0.0315 0,0.0473 -0.063,0.0157 -0.12599,0.0315 -0.18899,0.0473 z"
       id="path129-6"
       inkscape:connector-curvature="0" />
    <path
       style="fill:#ff6600;stroke:#000000;stroke-width:0.26458332px;stroke-linecap:butt;stroke-linejoin:miter;stroke-opacity:1"
       d="m 21.348367,269.97988 c -0.02961,-0.0108 -0.05921,-0.0215 -0.08882,-0.0323 -0.01479,-0.005 -0.03207,-0.006 -0.04441,-0.0161 -0.02761,-0.0218 -0.04349,-0.057 -0.0727,-0.0766 -0.02599,-0.0179 -0.06283,-0.0143 -0.08881,-0.0323 -0.08017,-0.0541 -0.137881,-0.17592 -0.218062,-0.23 -0.02599,-0.018 -0.06283,-0.0143 -0.08881,-0.0323 -0.05839,-0.0394 -0.08699,-0.11395 -0.145373,-0.15335 -0.02599,-0.0179 -0.06414,-0.0126 -0.08881,-0.0323 -0.01748,-0.0138 -0.01083,-0.0467 -0.0283,-0.0605 -0.02467,-0.0196 -0.06283,-0.0143 -0.08882,-0.0323 -0.02903,-0.0201 -0.04509,-0.0548 -0.07267,-0.0767 -0.01234,-0.01 -0.03208,-0.006 -0.04441,-0.0161 -0.141502,-0.11214 -0.02396,-0.0325 -0.100965,-0.13721 -0.04173,-0.0568 -0.103637,-0.0966 -0.14537,-0.15334 -0.01321,-0.0179 -0.01508,-0.0426 -0.0283,-0.0605 -0.02088,-0.0283 -0.05776,-0.0448 -0.07271,-0.0766 -0.0147,-0.12708 0.0027,-0.0731 -0.04042,-0.16549 -0.0094,-0.0202 -0.01885,-0.0404 -0.02826,-0.0606 -0.0094,-0.0201 -0.01295,-0.0444 -0.02826,-0.0606 -0.05013,-0.0529 -0.05925,0.0393 -0.0727,-0.0766 -0.0018,-0.0156 0.01791,-0.0288 0.01615,-0.0445 -0.0026,-0.0221 -0.02888,-0.0383 -0.02826,-0.0606 0.0012,-0.0448 0.0472,-0.0884 0.04839,-0.13322 9.31e-4,-0.0352 -0.0158,-0.0699 -0.01215,-0.10495 0.0033,-0.0314 0.02151,-0.0592 0.03226,-0.0888 0.03226,-0.0888 0.06452,-0.17763 0.09678,-0.26644 0.009,-0.0248 0.0665,-0.20418 0.08065,-0.22205 0.02763,-0.0349 0.08873,-0.0259 0.121084,-0.0566 0.01139,-0.0109 0.0063,-0.0321 0.01611,-0.0444 0.02187,-0.0276 0.0548,-0.0451 0.07667,-0.0727 0.0098,-0.0123 0.0048,-0.0336 0.01611,-0.0444 0.0161,-0.0153 0.04669,-0.0108 0.06052,-0.0282 0.01951,-0.0247 0.01275,-0.0641 0.03226,-0.0888 0.01889,-0.0239 0.203604,-0.0847 0.242152,-0.11311 0.02836,-0.0209 0.0483,-0.0518 0.07667,-0.0727 0.01793,-0.0132 0.04036,-0.0189 0.06053,-0.0282 0.02015,-0.009 0.03891,-0.023 0.06052,-0.0282 0.0342,-0.008 0.07306,0.003 0.104961,-0.0122 0.03191,-0.0149 0.04478,-0.0578 0.07667,-0.0727 0.0319,-0.0149 0.07073,-0.004 0.104936,-0.0121 0.08115,-0.0198 0.160984,-0.0933 0.242152,-0.11312 0.0342,-0.008 0.07073,-0.004 0.104961,-0.0122 0.126235,-0.0309 -0.015,-0.0452 0.165488,-0.0404 0.01576,4e-4 0.02878,0.0179 0.04441,0.0161 0.02214,-0.003 0.03891,-0.023 0.06052,-0.0282 0.0342,-0.008 0.07073,-0.004 0.104961,-0.0122 0.04327,-0.0106 0.07655,-0.0577 0.121085,-0.0566 0.0315,8e-4 0.05731,0.0314 0.08881,0.0322 0.02226,6.4e-4 0.03842,-0.0257 0.06056,-0.0283 0.01562,-0.002 0.02878,0.0179 0.04441,0.0161 0.02214,-0.003 0.03827,-0.0289 0.06052,-0.0282 0.0315,8.1e-4 0.05731,0.0315 0.08882,0.0323 0.02226,6.3e-4 0.03842,-0.0257 0.06053,-0.0282 0.01562,-0.002 0.02866,0.0157 0.04441,0.0161 0.03519,9.8e-4 0.06974,-0.0131 0.104961,-0.0122 0.03423,9.5e-4 0.102279,0.0519 0.133226,0.0484 0.02214,-0.003 0.03827,-0.0289 0.06052,-0.0282 0.0315,8e-4 0.05921,0.0215 0.08881,0.0323 0.01479,0.005 0.02878,0.0179 0.04441,0.0161 0.02214,-0.003 0.03827,-0.0289 0.06052,-0.0282 0.04481,0.001 0.08841,0.0472 0.133223,0.0484 0.03518,9.7e-4 0.06975,-0.0131 0.10497,-0.0122 0.0472,0.001 0.08599,0.0471 0.133224,0.0484 0.02222,6.2e-4 0.03826,-0.0289 0.06051,-0.0283 0.02425,2.9e-4 0.265517,0.0964 0.31085,0.1129 0.23685,0.086 0.473691,0.17206 0.710541,0.25808 0.148028,0.0538 0.296056,0.10754 0.444084,0.1613 0.03572,0.013 0.153171,0.045 0.177626,0.0645 0.0276,0.0218 0.0451,0.0548 0.07267,0.0767 0.0346,0.0275 0.198257,0.0555 0.222037,0.0807 0.01529,0.0162 0.01293,0.0444 0.02822,0.0606 0.02908,0.0307 0.104147,0.0177 0.133224,0.0484 0.01529,0.0162 0.01293,0.0444 0.02834,0.0605 0.01086,0.0114 0.0336,0.005 0.04446,0.0162 0.01529,0.0162 0.01293,0.0444 0.02825,0.0605 0.01086,0.0114 0.0336,0.005 0.04436,0.0161 0.01529,0.0162 0.01293,0.0444 0.02831,0.0606 0.01086,0.0114 0.0336,0.005 0.04436,0.0161 0.01529,0.0162 0.01293,0.0444 0.02825,0.0605 0.02169,0.0229 0.06713,0.009 0.08882,0.0323 0.0068,0.008 0.111947,0.23211 0.113109,0.24215 0.0018,0.0156 -0.02276,0.0301 -0.01615,0.0444 0.0066,0.0142 0.03772,0.002 0.04446,0.0162 0.0066,0.0142 -0.01791,0.0288 -0.01611,0.0444 0.0073,0.063 0.07756,0.1186 0.08483,0.18161 0.0018,0.0156 -0.01791,0.0288 -0.01611,0.0444 0.0051,0.0442 0.05775,0.0765 0.05656,0.12109 -8.08e-4,0.0315 -0.03145,0.0573 -0.03226,0.0888 -6.24e-4,0.0222 0.02574,0.0384 0.02822,0.0606 0.0036,0.0313 -0.03145,0.0573 -0.03226,0.0888 -9.7e-4,0.0352 0.01307,0.0697 0.0122,0.10497 -6.56e-4,0.0282 -0.03779,0.10404 -0.04839,0.13322 -0.02687,0.074 -0.05377,0.14803 -0.08065,0.22205 -0.01297,0.0357 -0.045,0.15317 -0.06452,0.17762 -0.02184,0.0276 -0.05479,0.0451 -0.07672,0.0727 -0.01961,0.0247 -0.0094,0.0671 -0.03226,0.0888 -0.01619,0.0153 -0.04438,0.0129 -0.06048,0.0282 -0.01139,0.0109 -0.0048,0.0336 -0.01615,0.0445 -0.01619,0.0153 -0.0426,0.0151 -0.06048,0.0282 -0.105961,-0.0132 -0.05668,0.0828 -0.09285,0.11707 -0.01619,0.0153 -0.0426,0.0151 -0.06048,0.0282 -0.10514,0.0774 -0.06433,0.11239 -0.169474,0.18979 -0.01788,0.0132 -0.0426,0.0151 -0.06057,0.0282 -0.02833,0.0209 -0.04829,0.0518 -0.07663,0.0727 -0.01797,0.0132 -0.0426,0.0151 -0.06057,0.0282 -0.02833,0.0209 -0.04829,0.0518 -0.07672,0.0727 -0.01942,0.0142 -0.159902,0.0823 -0.181613,0.0848 -0.01564,0.002 -0.02882,-0.0179 -0.04436,-0.0161 -0.0442,0.005 -0.07688,0.0515 -0.121085,0.0566 -0.01564,0.002 -0.02881,-0.0179 -0.04436,-0.0161 -0.0442,0.005 -0.07778,0.046 -0.121084,0.0566 -0.380463,0.044 0.08721,-0.0213 -0.165486,0.0404 -0.0342,0.008 -0.07074,0.004 -0.104971,0.0122 -0.0433,0.0106 -0.07778,0.046 -0.121084,0.0566 -0.0342,0.008 -0.07074,0.004 -0.104971,0.0122 -0.02162,0.005 -0.03889,0.023 -0.06051,0.0283 -0.0342,0.008 -0.07074,0.004 -0.104936,0.0121 -0.02162,0.005 -0.03839,0.0257 -0.06051,0.0284 -0.01564,0.002 -0.02865,-0.0157 -0.04446,-0.0161 -0.03518,-9.7e-4 -0.06975,0.0131 -0.10497,0.0122 -0.01571,-3.9e-4 -0.02882,-0.0179 -0.04446,-0.0161 -0.02212,0.003 -0.03826,0.0289 -0.06048,0.0282 -0.03152,-8.1e-4 -0.0573,-0.0315 -0.08882,-0.0323 -0.04457,-10e-4 -0.07651,0.0577 -0.121084,0.0566 -0.03152,-8.1e-4 -0.0573,-0.0315 -0.08882,-0.0323 -0.02222,-6.3e-4 -0.03826,0.0289 -0.06057,0.0282 -0.03152,-8.1e-4 -0.0573,-0.0315 -0.08882,-0.0323 -0.02222,-6.2e-4 -0.03839,0.0257 -0.06048,0.0282 -0.01564,0.002 -0.02882,-0.0179 -0.04436,-0.0161 -0.02212,0.003 -0.03839,0.0257 -0.06061,0.0283 -0.01564,0.002 -0.02961,-0.0108 -0.04436,-0.0161 -0.01476,-0.005 -0.02961,-0.0108 -0.04446,-0.0161 -0.08882,-0.0323 -0.177626,-0.0645 -0.266448,-0.0968 -0.01476,-0.005 -0.02961,-0.0108 -0.04446,-0.0161 -0.01476,-0.005 -0.03014,-0.0228 -0.04436,-0.0161 -0.01422,0.007 -0.0019,0.0377 -0.01611,0.0444 -0.01422,0.007 -0.02961,-0.0108 -0.04436,-0.0161 -0.103616,-0.0376 -0.207243,-0.0753 -0.310859,-0.11291 -0.262726,-0.17349 -0.38364,-0.22923 -0.61767,-0.37546 z"
       id="path145-7"
       inkscape:connector-curvature="0"
       sodipodi:nodetypes="ccccccccccccccccccccccccccccccccccccccccccccccccccccccccccccccccccccccccccccccccccccccsccccccccccccccccccccccccccccccccccccccccccccccccccccc" />
    <path
       style="fill:#000000;stroke:#000000;stroke-width:0.22206792px;stroke-linecap:butt;stroke-linejoin:miter;stroke-opacity:1"
       d="m 33.129252,272.2886 c -0.04448,0.17032 -0.04073,0.10333 -0.0415,0.19706 -1.08e-4,0.0131 0.0056,0.0277 -3.23e-4,0.0394 -0.0086,0.0165 -0.03163,0.0226 -0.0402,0.0392 -0.01208,0.0234 0.0183,0.0605 -6.47e-4,0.0789 -0.0094,0.009 -0.03036,-0.01 -0.0398,-3.2e-4 -0.0094,0.009 0.0056,0.0277 -3.24e-4,0.0394 -0.0086,0.0165 -0.03163,0.0226 -0.0402,0.0392 -0.006,0.0117 0.0056,0.0277 -3.24e-4,0.0394 -0.0086,0.0165 -0.03163,0.0226 -0.0402,0.0392 -0.006,0.0117 0.0091,0.0302 -3.25e-4,0.0394 -0.0094,0.009 -0.03036,-0.01 -0.0398,-3.2e-4 -0.0094,0.009 0.0056,0.0277 -3.24e-4,0.0394 -0.0094,0.0182 -0.137015,0.13358 -0.160636,0.15661 -0.02363,0.0231 -0.142114,0.14761 -0.160637,0.15661 -0.02387,0.0115 -0.0558,-0.0122 -0.07968,-6.4e-4 -0.01685,0.008 -0.02327,0.031 -0.0402,0.0392 -0.02387,0.0115 -0.06072,-0.0191 -0.07968,-6.4e-4 -0.0094,0.009 0.0091,0.0302 -3.24e-4,0.0394 -0.0094,0.009 -0.02656,-2.1e-4 -0.0398,-3.1e-4 -0.06636,-5.4e-4 -0.132783,-8.4e-4 -0.199178,-0.002 -0.01324,-10e-5 -0.02656,-2.1e-4 -0.03988,-3.2e-4 -0.01324,-1.1e-4 -0.02794,-0.006 -0.0398,-3.2e-4 -0.01685,0.008 -0.02327,0.0309 -0.0402,0.0392 -0.0085,0.004 -0.187372,0.002 -0.199168,-0.002 -0.02808,-0.01 -0.05126,-0.0306 -0.07935,-0.0401 -0.03473,-0.0118 -0.215109,0.0102 -0.239006,-0.002 -0.01671,-0.008 -0.02277,-0.0313 -0.03947,-0.0398 -0.01209,-0.006 -0.101561,-8.2e-4 -0.119502,-8.3e-4 -0.106224,-8.4e-4 -0.212449,-0.002 -0.318681,-0.003 -0.02656,-2.1e-4 -0.05312,-4.3e-4 -0.07968,-6.4e-4 -0.01324,-1e-4 -0.02804,0.006 -0.03988,-3.2e-4 -0.01671,-0.009 -0.02173,-0.0338 -0.03947,-0.0398 -0.05029,-0.017 -0.109093,0.0158 -0.159341,-0.002 -0.01774,-0.006 -0.02173,-0.0338 -0.03955,-0.0398 -0.02699,-0.009 -0.178135,0.009 -0.199168,-0.002 -0.01671,-0.008 -0.02276,-0.0313 -0.03947,-0.0398 -0.01184,-0.006 -0.02804,0.006 -0.03988,-3.2e-4 -0.01671,-0.008 -0.02276,-0.0313 -0.03947,-0.0398 -0.01184,-0.006 -0.02656,-2.2e-4 -0.0398,-3.3e-4 -0.01313,-0.0133 -0.02277,-0.0313 -0.03955,-0.0398 -0.01184,-0.006 -0.03051,0.009 -0.03988,-3.1e-4 -0.0093,-0.009 0.0096,-0.0301 3.25e-4,-0.0395 -0.0093,-0.009 -0.02804,0.006 -0.0398,-3.3e-4 -0.01671,-0.008 -0.02276,-0.0313 -0.03955,-0.0398 -0.01184,-0.006 -0.03051,0.009 -0.03988,-3.2e-4 -0.0093,-0.009 0.0062,-0.0277 3.24e-4,-0.0394 -0.08153,-0.16495 0.0022,0.0422 -0.07935,-0.0401 -0.0093,-0.009 0.0096,-0.0301 3.24e-4,-0.0395 -0.0093,-0.009 -0.03051,0.009 -0.03988,-3.2e-4 -0.0093,-0.009 0.0062,-0.0277 3.24e-4,-0.0395 -0.0083,-0.0167 -0.03126,-0.0231 -0.03947,-0.0398 -0.0075,-0.0144 0.0014,-0.16991 0.0016,-0.19737 5.4e-4,-0.0658 0.0011,-0.13158 0.0016,-0.19738 1.08e-4,-0.0131 2.15e-4,-0.0263 3.24e-4,-0.0395 1.08e-4,-0.0131 -0.0056,-0.0278 3.25e-4,-0.0395 0.0086,-0.0165 0.03164,-0.0226 0.04012,-0.0391 0.01208,-0.0235 -0.01143,-0.0555 6.48e-4,-0.0789 0.0086,-0.0165 0.03163,-0.0226 0.0402,-0.0391 0.01208,-0.0235 -0.01143,-0.0555 6.48e-4,-0.079 0.0086,-0.0165 0.03164,-0.0226 0.0402,-0.0391 0.006,-0.0117 -0.0056,-0.0277 3.25e-4,-0.0395 0.02425,-0.0472 0.09618,-0.0703 0.120475,-0.11745 0.006,-0.0117 -0.0056,-0.0278 3.25e-4,-0.0395 0.02425,-0.0472 0.09618,-0.0703 0.120475,-0.11746 0.006,-0.0117 -0.0091,-0.0302 3.24e-4,-0.0394 0.08313,-0.081 -0.0044,0.12478 0.08,-0.0388 0.006,-0.0117 -0.0091,-0.0303 3.25e-4,-0.0395 0.0094,-0.009 0.02794,0.006 0.03988,3.3e-4 0.01685,-0.008 0.02327,-0.031 0.04012,-0.0391 0.01194,-0.006 0.03036,0.01 0.0398,3.3e-4 0.0094,-0.009 -0.0091,-0.0302 3.24e-4,-0.0395 0.0094,-0.009 0.02794,0.006 0.03988,3.2e-4 0.01685,-0.008 0.02327,-0.031 0.0402,-0.0392 0.032,-0.0155 0.0875,0.0165 0.119503,8.4e-4 0.01685,-0.008 0.02327,-0.031 0.04012,-0.0391 0.01194,-0.006 0.03036,0.01 0.0398,3.1e-4 0.0094,-0.009 -0.0091,-0.0302 3.25e-4,-0.0395 0.01895,-0.0185 0.0558,0.0122 0.07968,6.3e-4 0.01685,-0.008 0.02228,-0.0334 0.04012,-0.0391 0.02528,-0.008 0.05312,4.3e-4 0.07968,6.4e-4 0.01324,1.1e-4 0.02794,0.006 0.0398,3.2e-4 0.01685,-0.008 0.02327,-0.031 0.0402,-0.0392 0.02514,-0.0122 0.134198,0.0135 0.15934,0.002 0.01685,-0.008 0.02327,-0.031 0.04012,-0.0392 0.0105,-0.005 0.138507,8.4e-4 0.15934,0.002 0.07968,6.5e-4 0.159332,0.002 0.239007,0.002 0.01796,1.5e-4 0.107426,-0.005 0.119502,8.4e-4 0.01671,0.009 0.02276,0.0313 0.03955,0.0399 0.02502,0.0126 0.174138,-0.011 0.199169,0.002 0.01671,0.009 0.02277,0.0313 0.03955,0.0399 0.03174,0.016 0.08776,-0.0151 0.119503,8.3e-4 0.01671,0.009 0.02276,0.0313 0.03955,0.0398 0.02368,0.012 0.06103,-0.0181 0.07968,6.5e-4 0.0093,0.009 -0.0096,0.0301 -3.24e-4,0.0395 0.01865,0.0188 0.05599,-0.0114 0.07968,6.5e-4 0.01671,0.009 0.02277,0.0313 0.03947,0.0398 0.01184,0.006 0.02804,-0.006 0.03988,3.2e-4 0.01671,0.009 0.02277,0.0313 0.03955,0.0399 0.02368,0.0119 0.06103,-0.0181 0.07968,6.4e-4 0.0093,0.009 -0.0096,0.0301 -3.25e-4,0.0395 0.0093,0.009 0.02804,-0.006 0.03988,3.2e-4 0.01671,0.009 0.02276,0.0313 0.03947,0.0398 0.01184,0.006 0.03051,-0.009 0.0398,3.2e-4 0.0093,0.009 -0.0096,0.0301 -3.24e-4,0.0395 0.0093,0.009 0.02804,-0.006 0.03988,3.2e-4 0.0076,0.003 0.154286,0.15158 0.158043,0.15918 0.0058,0.0119 -0.0096,0.0301 -3.24e-4,0.0394 0.0093,0.009 0.03051,-0.009 0.0398,3.2e-4 0.0093,0.009 -0.0096,0.0301 -3.25e-4,0.0395 0.0093,0.009 0.03051,-0.009 0.03988,3.3e-4 0.01865,0.0188 -0.01234,0.0553 -6.48e-4,0.079 0.0083,0.0167 0.03126,0.0231 0.03955,0.0399 0.01169,0.0236 -0.0193,0.0602 -6.47e-4,0.079 0.0093,0.009 0.03051,-0.009 0.0398,3.2e-4 0.01865,0.0188 -0.0193,0.0602 -6.48e-4,0.079 0.0093,0.009 0.02656,2.2e-4 0.03988,3.2e-4 0.01281,0.0527 0.02569,0.10548 0.03858,0.15822 z"
       id="path129-6-5"
       inkscape:connector-curvature="0" />
  </g>
</svg>
